<?xml version="1.0" encoding="UTF-8" standalone="no" ?>
<!DOCTYPE svg PUBLIC "-//W3C//DTD SVG 1.1//EN" "http://www.w3.org/Graphics/SVG/1.1/DTD/svg11.dtd">
<svg xmlns="http://www.w3.org/2000/svg" xmlns:xlink="http://www.w3.org/1999/xlink" version="1.1" width="240" height="240" viewBox="0 0 240 240" xml:space="preserve">
<desc>Created with Fabric.js 5.3.0</desc>
<defs>
</defs>
<g transform="matrix(0.6040938108 0 0 0.6040938108 120 120)" id="sRcmOQAvN7xtJk_3t4xNB"  >
<g style="" vector-effect="non-scaling-stroke"   >
		<g transform="matrix(1 0 0 1 -0.0004777778 3.0342667726)" id="8PwlSk-9TOW6Qec_vR_iD"  >
<path style="stroke: none; stroke-width: 1; stroke-dasharray: none; stroke-linecap: butt; stroke-dashoffset: 0; stroke-linejoin: miter; stroke-miterlimit: 4; fill: rgb(255,244,233); fill-rule: nonzero; opacity: 1;" vector-effect="non-scaling-stroke"  transform=" translate(-242.5679763749, -370.1966219338)" d="M 240.168 346.389 C 186.747 353.021 144.512 369.058 145.837 382.209 C 147.16199999999998 395.36 191.545 400.637 244.965 394 C 298.385 387.363 340.623 371.331 339.299 358.183 C 337.97499999999997 345.03499999999997 293.592 339.759 240.168 346.389 Z M 243.74800000000002 390.48900000000003 C 206.097 395.163 165.37600000000003 393.13700000000006 164.072 380.17800000000005 C 162.76799999999997 367.21900000000005 202.072 355.26200000000006 239.72500000000002 350.58400000000006 C 277.37800000000004 345.90600000000006 318.092 347.94 319.4 360.9 C 320.70799999999997 373.85999999999996 281.4 385.819 243.748 390.492 Z M 240.81300000000002 352.783 C 201.746 357.63300000000004 170.86 369.36 171.829 378.978 C 172.798 388.596 205.255 392.454 244.32 387.603 C 283.385 382.752 314.275 371.02500000000003 313.307 361.411 C 312.33900000000006 351.79699999999997 279.881 347.938 240.813 352.786 Z M 243.431 385.036 C 215.89700000000002 388.454 186.11700000000002 386.972 185.16400000000002 377.495 C 184.211 368.01800000000003 212.95700000000002 359.274 240.48900000000003 355.853 C 268.0210000000001 352.432 297.79900000000004 353.91700000000003 298.754 363.395 C 299.709 372.87299999999993 270.963 381.621 243.431 385.039 Z" stroke-linecap="round" />
</g>
		<g transform="matrix(1 0 0 1 42.9275458474 16.4996448388)" id="i4N09TOB8TINN2tSmmgGv"  >
<path style="stroke: none; stroke-width: 1; stroke-dasharray: none; stroke-linecap: butt; stroke-dashoffset: 0; stroke-linejoin: miter; stroke-miterlimit: 4; fill: rgb(219,130,49); fill-rule: nonzero; opacity: 1;" vector-effect="non-scaling-stroke"  transform=" translate(-1.125, -0.664)" d="M 0 0.664 C 0 0.29728000000000004 0.50368 0 1.125 0 C 1.7463199999999999 0 2.25 0.29728 2.25 0.664 C 2.25 1.03072 1.7463199999999999 1.328 1.125 1.328 C 0.50368 1.328 0 1.03072 0 0.664 z" stroke-linecap="round" />
</g>
		<g transform="matrix(1 0 0 1 0.4175458474 -0.0003551612)" id="lvqJMIZgWiyppk4IRNGqp"  >
<path style="stroke: none; stroke-width: 1; stroke-dasharray: none; stroke-linecap: butt; stroke-dashoffset: 0; stroke-linejoin: miter; stroke-miterlimit: 4; fill: rgb(254,208,158); fill-rule: nonzero; opacity: 1;" vector-effect="non-scaling-stroke"  transform=" translate(-242.986, -367.162)" d="M 294.986 367.162 C 294.986 395.8808069912012 271.7048069912012 419.162 242.986 419.162 C 214.26719300879873 419.162 190.986 395.8808069912012 190.986 367.162 C 190.986 338.44319300879874 214.26719300879873 315.162 242.986 315.162 C 271.7048069912012 315.162 294.986 338.4431930087987 294.986 367.162 Z" stroke-linecap="round" />
</g>
		<g transform="matrix(1 0 0 1 -3.5799541526 44.6360124321)" id="yNwYwsmUOMhlAGX9C9KiB"  >
<path style="stroke: none; stroke-width: 1; stroke-dasharray: none; stroke-linecap: butt; stroke-dashoffset: 0; stroke-linejoin: miter; stroke-miterlimit: 4; fill: rgb(219,130,49); fill-rule: nonzero; opacity: 1;" vector-effect="non-scaling-stroke"  transform=" translate(-238.9885, -411.7983675933)" d="M 235.052 405.122 C 229.83499999999998 403.81100000000004 225.039 404.546 219.926 405.885 C 216.09599999999998 406.885 211.771 404.728 207.62599999999998 405.27299999999997 C 224.77502826827478 421.1982156447179 250.4525415992973 423.6978074565828 270.351 411.37899999999996 C 269.724 411.186 269.085 410.99499999999995 268.419 410.811 C 263.31899999999996 409.405 257.556 409.354 252.325 408.524 C 246.525 407.6 240.746 406.551 235.052 405.122 Z" stroke-linecap="round" />
</g>
		<g transform="matrix(1 0 0 1 0.4590458474 5.458963428)" id="zR7EXRs5T5mfoTkD5IrB-"  >
<path style="stroke: none; stroke-width: 1; stroke-dasharray: none; stroke-linecap: butt; stroke-dashoffset: 0; stroke-linejoin: miter; stroke-miterlimit: 4; fill: rgb(219,130,49); fill-rule: nonzero; opacity: 1;" vector-effect="non-scaling-stroke"  transform=" translate(-243.0275, -372.6213185892)" d="M 275.516 373.246 C 273.043 372.39599999999996 270.725 371.22499999999997 268.207 370.477 C 265.223 369.59 261.799 369.822 258.723 369.67699999999996 C 252.205 369.37699999999995 246.435 367.34099999999995 240.109 366.20199999999994 C 235.29500000000002 365.33599999999996 230.43800000000002 366.37799999999993 225.79000000000002 367.6019999999999 C 222.75914468610202 368.5122824049913 219.6427814904899 369.1087476187751 216.49 369.3819999999999 C 213.29000000000002 369.5579999999999 210.24 369.15699999999987 207.035 369.71699999999987 C 201.751 370.63799999999986 196.535 371.55199999999985 191.23499999999999 372.2809999999999 C 191.398 373.9439999999999 191.64299999999997 375.5809999999999 191.95899999999997 377.1959999999999 C 192.67299999999997 377.11799999999994 193.38199999999998 377.0429999999999 194.07799999999997 376.9649999999999 C 199.23799999999997 376.38499999999993 204.24399999999997 375.0899999999999 209.378 374.40199999999993 C 214.88899999999998 373.66399999999993 219.97799999999998 374.2939999999999 225.47199999999998 372.86599999999993 C 232.13099999999997 371.13699999999994 237.57199999999997 370.42299999999994 244.255 372.35599999999994 C 249.56849066842298 373.8086701016512 255.0374528050192 374.61681006498765 260.544 374.7629999999999 C 263.7050727088753 374.7742330725475 266.8442572837469 375.28797919329526 269.844 376.2849999999999 C 272.2357352235207 377.29986322322617 274.67679222915945 378.1943167062877 277.158 378.9649999999999 C 281.922 380.2049999999999 287.115 378.2419999999999 291.641 376.9389999999999 C 292.492 376.6939999999999 293.33000000000004 376.4999999999999 294.156 376.34899999999993 C 294.4671626762839 374.5994506101163 294.6887845691563 372.8351534328219 294.82 371.06299999999993 C 288.3 372.391 282.176 375.538 275.516 373.246 Z" stroke-linecap="round" />
</g>
		<g transform="matrix(1 0 0 1 -0.2104541526 24.0749892811)" id="YA7FXIGUqelfYpGDn0vNe"  >
<path style="stroke: none; stroke-width: 1; stroke-dasharray: none; stroke-linecap: butt; stroke-dashoffset: 0; stroke-linejoin: miter; stroke-miterlimit: 4; fill: rgb(255,225,197); fill-rule: nonzero; opacity: 1;" vector-effect="non-scaling-stroke"  transform=" translate(-242.358, -391.2373444423)" d="M 278.537 388.092 C 272.693 386.68199999999996 266.664 387.10699999999997 260.77099999999996 385.643 C 255.78499999999997 384.402 249.11699999999996 381.453 243.92599999999996 382.80999999999995 C 242.18805005644478 383.3112855540309 240.5296553257816 384.0556442120692 239 385.021 C 237.1 386.139 233.559 384.14300000000003 231.139 384.73400000000004 C 228.82600000000002 385.3 226.776 386.42800000000005 224.52800000000002 387.18000000000006 C 222.222 387.9510000000001 218.455 386.00000000000006 216.16100000000003 385.54800000000006 C 210.32000000000002 384.39700000000005 204.24200000000002 386.71000000000004 198.75000000000003 388.46100000000007 C 197.81900000000002 388.7610000000001 196.88900000000004 389.0610000000001 195.95900000000003 389.36100000000005 C 197.4018193760308 392.4138130953247 199.13904881078346 395.31857324331196 201.14600000000004 398.03400000000005 C 205.66100000000003 396.35900000000004 210.61200000000005 394.62200000000007 214.89400000000003 395.46600000000007 C 219.71900000000002 396.41600000000005 223.61400000000003 398.01900000000006 228.54400000000004 396.36600000000004 C 231.18700000000004 395.482 232.53900000000004 394.22400000000005 235.39800000000005 395.22200000000004 C 237.77600000000007 396.052 240.92900000000006 395.249 243.08400000000006 394.146 C 245.21500000000006 393.05600000000004 245.81100000000006 392.43 248.28400000000005 392.861 C 251.05600000000004 393.34499999999997 253.78400000000005 394.139 256.49700000000007 394.861 C 262.52400000000006 396.461 268.30800000000005 396.598 274.4050000000001 397.45 C 277.46412087347204 397.92122037480993 280.45015673856676 398.78291941342593 283.2900000000001 400.014 C 285.3652569703997 397.47438319854314 287.19573648570037 394.7442332135857 288.75700000000006 391.86 C 285.4890010361793 390.25582741195075 282.06419885046483 388.99314104837225 278.5369999999999 388.092 Z" stroke-linecap="round" />
</g>
		<g transform="matrix(1 0 0 1 1.5715458474 -47.0304075289)" id="QfU8PjMVNQBQIXoKLQF9h"  >
<path style="stroke: none; stroke-width: 1; stroke-dasharray: none; stroke-linecap: butt; stroke-dashoffset: 0; stroke-linejoin: miter; stroke-miterlimit: 4; fill: rgb(249,182,115); fill-rule: nonzero; opacity: 1;" vector-effect="non-scaling-stroke"  transform=" translate(-244.14, -320.1319476322)" d="M 256.152 324.965 C 261.139 324.64399999999995 266.203 323.81 271.24 323.51899999999995 C 254.87148888879372 312.909468319057 233.93908409858537 312.36375820893585 217.04000000000002 322.10599999999994 C 221.55700000000002 322.7939999999999 226.09400000000002 323.0659999999999 229.81900000000002 323.49699999999996 C 236.594 324.279 247.634 325.513 256.152 324.965 Z" stroke-linecap="round" />
</g>
		<g transform="matrix(1 0 0 1 1.0710458474 -31.4180489602)" id="ZM59Id4qKJ7wd6So10pKs"  >
<path style="stroke: none; stroke-width: 1; stroke-dasharray: none; stroke-linecap: butt; stroke-dashoffset: 0; stroke-linejoin: miter; stroke-miterlimit: 4; fill: rgb(219,130,49); fill-rule: nonzero; opacity: 1;" vector-effect="non-scaling-stroke"  transform=" translate(-243.6395, -335.744306201)" d="M 198.224 340.7 C 202.91855303718518 339.6714239861671 207.68354471411834 338.99586816862364 212.47899999999996 338.679 C 217.13 338.292 221.24499999999998 339.06399999999996 225.82799999999997 339.662 C 231.10958999403184 340.29486860154657 236.4510651170055 340.23805870250425 241.71799999999996 339.493 C 243.92899999999997 339.212 246.13099999999997 338.866 248.33199999999997 338.521 C 251.54199999999997 338.021 253.51999999999995 338.91 256.498 339.983 C 260.959 341.591 265.938 341.802 270.629 341.898 C 275.68800000000005 341.99800000000005 280.55100000000004 342.72200000000004 285.57800000000003 343.16200000000003 C 286.7376025598245 343.25473321846135 287.90396219877505 343.21649191882364 289.055 343.04800000000006 C 287.1447769624307 339.41044721689127 284.8116161962494 336.01123572514643 282.104 332.92100000000005 C 278.289 332.55300000000005 274.51 331.92800000000005 270.62899999999996 331.898 C 265.6216116886759 331.90772294279145 260.6565784980184 330.98078560348773 255.98999999999995 329.165 C 250.82999999999996 327.183 245.24799999999996 329.04400000000004 239.98999999999995 329.71200000000005 C 229.70099999999996 331.0210000000001 219.85099999999994 327.97300000000007 209.55099999999996 328.93800000000005 Q 208.53799999999995 329.0330000000001 207.52199999999996 329.13800000000003 C 203.88820951576258 332.5298547678457 200.757287051135 336.42313563857317 198.224 340.7 Z" stroke-linecap="round" />
</g>
		<g transform="matrix(1 0 0 1 0.5580458474 -15.3380541609)" id="IeKFR9ogNrk4jcrzfovVn"  >
<path style="stroke: none; stroke-width: 1; stroke-dasharray: none; stroke-linecap: butt; stroke-dashoffset: 0; stroke-linejoin: miter; stroke-miterlimit: 4; fill: rgb(255,225,197); fill-rule: nonzero; opacity: 1;" vector-effect="non-scaling-stroke"  transform=" translate(-243.1265, -351.8243010003)" d="M 268.363 351.3 C 262.33 349.7 256.703 347.987 250.41 347.90000000000003 C 244.07999999999998 347.807 237.561 347.94100000000003 231.245 348.32300000000004 C 228.2297858943096 348.6113965077919 225.25610117342953 349.2349110460409 222.379 350.182 C 219.10960014200612 351.0196345332693 215.72634230224446 351.3235502988932 212.36 351.082 C 205.9820887230655 350.93872183114837 199.60165777487725 351.21498446958566 193.25999999999993 351.909 Q 192.86700000000002 353.193 192.54100000000003 354.509 C 199.11680991060848 353.74890654472364 205.73702008177352 353.44084992930954 212.3549999999999 353.587 C 217.11435898056257 353.74851867556123 221.8656150721198 353.0822871384386 226.39700000000002 351.618 C 232.79700000000003 349.735 240.305 350.718 246.92100000000002 350.475 C 258.80400000000003 350.03200000000004 269.42100000000005 355.43100000000004 281.233 355.468 C 285.46 355.482 289.608 355.35900000000004 293.712 355.77700000000004 Q 293.42699999999996 354.49800000000005 293.079 353.244 C 291.493 353.059 289.895 352.944 288.279 352.915 C 281.445 352.789 275.06 353.067 268.363 351.3 Z" stroke-linecap="round" />
</g>
		<g transform="matrix(1 0 0 1 39.4275458474 -5.8333551612)" id="4FX9j5RKVk5WU1_qc7rgk"  >
<path style="stroke: none; stroke-width: 1; stroke-dasharray: none; stroke-linecap: butt; stroke-dashoffset: 0; stroke-linejoin: miter; stroke-miterlimit: 4; fill: rgb(219,130,49); fill-rule: nonzero; opacity: 1;" vector-effect="non-scaling-stroke"  transform=" translate(-3, -1.77)" d="M 0 1.77 C 0 0.79246 1.34315 0 3 0 C 4.65685 0 6 0.79246 6 1.77 C 6 2.74754 4.65685 3.54 3 3.54 C 1.34315 3.54 0 2.74754 0 1.77 z" stroke-linecap="round" />
</g>
		<g transform="matrix(1 0 0 1 -34.6154541526 -8.0003551612)" id="mP0gGMRwL150DHYDQVB_N"  >
<path style="stroke: none; stroke-width: 1; stroke-dasharray: none; stroke-linecap: butt; stroke-dashoffset: 0; stroke-linejoin: miter; stroke-miterlimit: 4; fill: rgb(219,130,49); fill-rule: nonzero; opacity: 1;" vector-effect="non-scaling-stroke"  transform=" translate(-3, -1.77)" d="M 0 1.77 C 0 0.79246 1.34315 0 3 0 C 4.65685 0 6 0.79246 6 1.77 C 6 2.74754 4.65685 3.54 3 3.54 C 1.34315 3.54 0 2.74754 0 1.77 z" stroke-linecap="round" />
</g>
		<g transform="matrix(1 0 0 1 28.6345458474 16.2496448388)" id="SEIVg-dFzf_JfKkwHswHk"  >
<path style="stroke: none; stroke-width: 1; stroke-dasharray: none; stroke-linecap: butt; stroke-dashoffset: 0; stroke-linejoin: miter; stroke-miterlimit: 4; fill: rgb(219,130,49); fill-rule: nonzero; opacity: 1;" vector-effect="non-scaling-stroke"  transform=" translate(-3, -1.77)" d="M 0 1.77 C 0 0.79246 1.34315 0 3 0 C 4.65685 0 6 0.79246 6 1.77 C 6 2.74754 4.65685 3.54 3 3.54 C 1.34315 3.54 0 2.74754 0 1.77 z" stroke-linecap="round" />
</g>
		<g transform="matrix(1 0 0 1 -7.1154541526 -47.0003551612)" id="A9BpWcdEPsht6Yb2GknPm"  >
<path style="stroke: none; stroke-width: 1; stroke-dasharray: none; stroke-linecap: butt; stroke-dashoffset: 0; stroke-linejoin: miter; stroke-miterlimit: 4; fill: rgb(219,130,49); fill-rule: nonzero; opacity: 1;" vector-effect="non-scaling-stroke"  transform=" translate(-3, -1.77)" d="M 0 1.77 C 0 0.79246 1.34315 0 3 0 C 4.65685 0 6 0.79246 6 1.77 C 6 2.74754 4.65685 3.54 3 3.54 C 1.34315 3.54 0 2.74754 0 1.77 z" stroke-linecap="round" />
</g>
		<g transform="matrix(1 0 0 1 6.4475458474 36.8746448388)" id="5wb6ecsSnUrc16PAIY4_D"  >
<path style="stroke: none; stroke-width: 1; stroke-dasharray: none; stroke-linecap: butt; stroke-dashoffset: 0; stroke-linejoin: miter; stroke-miterlimit: 4; fill: rgb(219,130,49); fill-rule: nonzero; opacity: 1;" vector-effect="non-scaling-stroke"  transform=" translate(-1.813, -1.069)" d="M 0 1.069 C 0 0.47861 0.81171 0 1.813 0 C 2.8142899999999997 0 3.626 0.47861 3.626 1.069 C 3.626 1.65939 2.8142899999999997 2.138 1.813 2.138 C 0.8117099999999999 2.138 0 1.65939 0 1.069 z" stroke-linecap="round" />
</g>
		<g transform="matrix(1 0 0 1 5.4475458474 -11.8753551612)" id="SQqAVeWBB8ti8c6z97wqG"  >
<path style="stroke: none; stroke-width: 1; stroke-dasharray: none; stroke-linecap: butt; stroke-dashoffset: 0; stroke-linejoin: miter; stroke-miterlimit: 4; fill: rgb(219,130,49); fill-rule: nonzero; opacity: 1;" vector-effect="non-scaling-stroke"  transform=" translate(-1.813, -1.069)" d="M 0 1.069 C 0 0.47861 0.81171 0 1.813 0 C 2.8142899999999997 0 3.626 0.47861 3.626 1.069 C 3.626 1.65939 2.8142899999999997 2.138 1.813 2.138 C 0.8117099999999999 2.138 0 1.65939 0 1.069 z" stroke-linecap="round" />
</g>
		<g transform="matrix(1 0 0 1 -21.8024541526 12.7496448388)" id="AObYOY16-c5Ws6kxV-BYJ"  >
<path style="stroke: none; stroke-width: 1; stroke-dasharray: none; stroke-linecap: butt; stroke-dashoffset: 0; stroke-linejoin: miter; stroke-miterlimit: 4; fill: rgb(219,130,49); fill-rule: nonzero; opacity: 1;" vector-effect="non-scaling-stroke"  transform=" translate(-1.813, -1.069)" d="M 0 1.069 C 0 0.47861 0.81171 0 1.813 0 C 2.8142899999999997 0 3.626 0.47861 3.626 1.069 C 3.626 1.65939 2.8142899999999997 2.138 1.813 2.138 C 0.8117099999999999 2.138 0 1.65939 0 1.069 z" stroke-linecap="round" />
</g>
		<g transform="matrix(1 0 0 1 26.4475458474 -38.1253551612)" id="XfLhBP4NcT4pcmZZ0m_CI"  >
<path style="stroke: none; stroke-width: 1; stroke-dasharray: none; stroke-linecap: butt; stroke-dashoffset: 0; stroke-linejoin: miter; stroke-miterlimit: 4; fill: rgb(219,130,49); fill-rule: nonzero; opacity: 1;" vector-effect="non-scaling-stroke"  transform=" translate(-1.125, -0.664)" d="M 0 0.664 C 0 0.29728000000000004 0.50368 0 1.125 0 C 1.7463199999999999 0 2.25 0.29728 2.25 0.664 C 2.25 1.03072 1.7463199999999999 1.328 1.125 1.328 C 0.50368 1.328 0 1.03072 0 0.664 z" stroke-linecap="round" />
</g>
		<g transform="matrix(1 0 0 1 -20.4074541526 -41.3333551612)" id="mrJ-hLTi_TeCUrWKIZyNv"  >
<path style="stroke: none; stroke-width: 1; stroke-dasharray: none; stroke-linecap: butt; stroke-dashoffset: 0; stroke-linejoin: miter; stroke-miterlimit: 4; fill: rgb(219,130,49); fill-rule: nonzero; opacity: 1;" vector-effect="non-scaling-stroke"  transform=" translate(-1.125, -0.664)" d="M 0 0.664 C 0 0.29728000000000004 0.50368 0 1.125 0 C 1.7463199999999999 0 2.25 0.29728 2.25 0.664 C 2.25 1.03072 1.7463199999999999 1.328 1.125 1.328 C 0.50368 1.328 0 1.03072 0 0.664 z" stroke-linecap="round" />
</g>
		<g transform="matrix(1 0 0 1 -13.0734541526 -8.5003551612)" id="s9_LPX6ODvQE090f9Y6qQ"  >
<path style="stroke: none; stroke-width: 1; stroke-dasharray: none; stroke-linecap: butt; stroke-dashoffset: 0; stroke-linejoin: miter; stroke-miterlimit: 4; fill: rgb(219,130,49); fill-rule: nonzero; opacity: 1;" vector-effect="non-scaling-stroke"  transform=" translate(-1.125, -0.664)" d="M 0 0.664 C 0 0.29728000000000004 0.50368 0 1.125 0 C 1.7463199999999999 0 2.25 0.29728 2.25 0.664 C 2.25 1.03072 1.7463199999999999 1.328 1.125 1.328 C 0.50368 1.328 0 1.03072 0 0.664 z" stroke-linecap="round" />
</g>
		<g transform="matrix(1 0 0 1 20.0935458474 -3.1673551612)" id="LiNf6d48HNYqYym83nJcW"  >
<path style="stroke: none; stroke-width: 1; stroke-dasharray: none; stroke-linecap: butt; stroke-dashoffset: 0; stroke-linejoin: miter; stroke-miterlimit: 4; fill: rgb(219,130,49); fill-rule: nonzero; opacity: 1;" vector-effect="non-scaling-stroke"  transform=" translate(-262.662, -363.995)" d="M 263.787 363.995 C 263.787 364.362 263.287 364.659 262.662 364.659 C 262.037 364.659 261.537 364.359 261.537 363.995 C 261.537 363.63100000000003 262.037 363.331 262.662 363.331 C 263.287 363.331 263.787 363.628 263.787 363.995 Z" stroke-linecap="round" />
</g>
		<g transform="matrix(1 0 0 1 32.2595458474 -21.8333551612)" id="KAWepWC6DnNaNanClQp43"  >
<path style="stroke: none; stroke-width: 1; stroke-dasharray: none; stroke-linecap: butt; stroke-dashoffset: 0; stroke-linejoin: miter; stroke-miterlimit: 4; fill: rgb(219,130,49); fill-rule: nonzero; opacity: 1;" vector-effect="non-scaling-stroke"  transform=" translate(-1.125, -0.664)" d="M 0 0.664 C 0 0.29728000000000004 0.50368 0 1.125 0 C 1.7463199999999999 0 2.25 0.29728 2.25 0.664 C 2.25 1.03072 1.7463199999999999 1.328 1.125 1.328 C 0.50368 1.328 0 1.03072 0 0.664 z" stroke-linecap="round" />
</g>
		<g transform="matrix(1 0 0 1 0.9260458474 10.6666448388)" id="CXK9Jv9GW90kH_jh302Lu"  >
<path style="stroke: none; stroke-width: 1; stroke-dasharray: none; stroke-linecap: butt; stroke-dashoffset: 0; stroke-linejoin: miter; stroke-miterlimit: 4; fill: rgb(219,130,49); fill-rule: nonzero; opacity: 1;" vector-effect="non-scaling-stroke"  transform=" translate(-243.4945, -377.829)" d="M 244.619 377.829 C 244.619 378.196 244.119 378.493 243.494 378.493 C 242.869 378.493 242.37 378.193 242.37 377.829 C 242.37 377.46500000000003 242.87 377.165 243.494 377.165 C 244.118 377.165 244.619 377.462 244.619 377.829 Z" stroke-linecap="round" />
</g>
		<g transform="matrix(1 0 0 1 -7.7404541526 33.9996448388)" id="dHHH8qZ3vddYUadZ7G5Ge"  >
<path style="stroke: none; stroke-width: 1; stroke-dasharray: none; stroke-linecap: butt; stroke-dashoffset: 0; stroke-linejoin: miter; stroke-miterlimit: 4; fill: rgb(219,130,49); fill-rule: nonzero; opacity: 1;" vector-effect="non-scaling-stroke"  transform=" translate(-1.125, -0.664)" d="M 0 0.664 C 0 0.29728000000000004 0.50368 0 1.125 0 C 1.7463199999999999 0 2.25 0.29728 2.25 0.664 C 2.25 1.03072 1.7463199999999999 1.328 1.125 1.328 C 0.50368 1.328 0 1.03072 0 0.664 z" stroke-linecap="round" />
</g>
		<g transform="matrix(1 0 0 1 22.5935458474 36.3326448388)" id="Pn34onacSSY29TbrJYuAi"  >
<path style="stroke: none; stroke-width: 1; stroke-dasharray: none; stroke-linecap: butt; stroke-dashoffset: 0; stroke-linejoin: miter; stroke-miterlimit: 4; fill: rgb(219,130,49); fill-rule: nonzero; opacity: 1;" vector-effect="non-scaling-stroke"  transform=" translate(-265.162, -403.495)" d="M 266.287 403.495 C 266.287 403.862 265.787 404.159 265.162 404.159 C 264.537 404.159 264.037 403.859 264.037 403.495 C 264.037 403.13100000000003 264.537 402.831 265.162 402.831 C 265.787 402.831 266.287 403.128 266.287 403.495 Z" stroke-linecap="round" />
</g>
		<g transform="matrix(1 0 0 1 -37.4074541526 13.9996448388)" id="fARBuNzfSejJdUDbELFpl"  >
<path style="stroke: none; stroke-width: 1; stroke-dasharray: none; stroke-linecap: butt; stroke-dashoffset: 0; stroke-linejoin: miter; stroke-miterlimit: 4; fill: rgb(219,130,49); fill-rule: nonzero; opacity: 1;" vector-effect="non-scaling-stroke"  transform=" translate(-1.125, -0.664)" d="M 0 0.664 C 0 0.29728000000000004 0.50368 0 1.125 0 C 1.7463199999999999 0 2.25 0.29728 2.25 0.664 C 2.25 1.03072 1.7463199999999999 1.328 1.125 1.328 C 0.50368 1.328 0 1.03072 0 0.664 z" stroke-linecap="round" />
</g>
		<g transform="matrix(1 0 0 1 -34.5734541526 -22.6673551612)" id="_ZIOE-3_i0becoBWJDHlb"  >
<path style="stroke: none; stroke-width: 1; stroke-dasharray: none; stroke-linecap: butt; stroke-dashoffset: 0; stroke-linejoin: miter; stroke-miterlimit: 4; fill: rgb(219,130,49); fill-rule: nonzero; opacity: 1;" vector-effect="non-scaling-stroke"  transform=" translate(-207.995, -344.495)" d="M 209.12 344.495 C 209.12 344.862 208.62 345.159 207.995 345.159 C 207.37 345.159 206.87 344.859 206.87 344.495 C 206.87 344.13100000000003 207.37 343.831 207.995 343.831 C 208.62 343.831 209.12 344.128 209.12 344.495 Z" stroke-linecap="round" />
</g>
		<g transform="matrix(1 0 0 1 7.2595458474 -23.8363551612)" id="yGV4xuSSHxy4NDolbO2al"  >
<path style="stroke: none; stroke-width: 1; stroke-dasharray: none; stroke-linecap: butt; stroke-dashoffset: 0; stroke-linejoin: miter; stroke-miterlimit: 4; fill: rgb(219,130,49); fill-rule: nonzero; opacity: 1;" vector-effect="non-scaling-stroke"  transform=" translate(-249.828, -343.326)" d="M 250.953 343.326 C 250.953 343.69300000000004 250.453 343.99 249.828 343.99 C 249.203 343.99 248.703 343.69 248.703 343.326 C 248.703 342.96200000000005 249.203 342.66200000000003 249.828 342.66200000000003 C 250.453 342.66200000000003 250.953 342.959 250.953 343.326 Z" stroke-linecap="round" />
</g>
		<g transform="matrix(1 0 0 1 6.8563371283 10.3994735056)" id="-E-yBzT8aTEuzmijbwKIe"  >
<path style="stroke: none; stroke-width: 1; stroke-dasharray: none; stroke-linecap: butt; stroke-dashoffset: 0; stroke-linejoin: miter; stroke-miterlimit: 4; fill: rgb(33,42,60); fill-rule: nonzero; opacity: 0.2;" vector-effect="non-scaling-stroke"  transform=" translate(-249.4247912809, -377.5618286668)" d="M 284.6 335.973 C 267.70000000000005 359.741 236.36700000000002 397.106 203.86 401.391 C 222.26457923551038 422.4275733916763 254.00749082877581 425.1495622830998 275.724861139321 407.5534893208104 C 297.44223144986614 389.957416358521 301.3624052840064 358.34011259850666 284.6 335.973 Z" stroke-linecap="round" />
</g>
		<g transform="matrix(1 0 0 1 11.1615468421 25.4219271686)" id="Jqct1Nxg-fpKg952iwwkX"  >
<path style="stroke: none; stroke-width: 1; stroke-dasharray: none; stroke-linecap: butt; stroke-dashoffset: 0; stroke-linejoin: miter; stroke-miterlimit: 4; fill: rgb(33,42,60); fill-rule: nonzero; opacity: 0.2;" vector-effect="non-scaling-stroke"  transform=" translate(-253.7300009947, -392.5842823298)" d="M 294.957 366.006 C 277.83 386.72499999999997 248.969 412.275 212.474 409.25899999999996 C 228.29556776014985 420.7337347629311 249.2159557364282 422.3654832930712 266.6253693900326 413.48269879122006 C 284.0347830436369 404.5999142893689 294.9913923093971 386.70360322420566 294.986 367.15899999999993 C 294.986 366.774 294.965 366.392 294.957 366.006 Z" stroke-linecap="round" />
</g>
		<g transform="matrix(1 0 0 1 0.0005115499 3.1186023252)" id="KdoS865o34b3cAxgwnZFA"  >
<path style="stroke: none; stroke-width: 1; stroke-dasharray: none; stroke-linecap: butt; stroke-dashoffset: 0; stroke-linejoin: miter; stroke-miterlimit: 4; fill: rgb(255,244,233); fill-rule: nonzero; opacity: 1;" vector-effect="non-scaling-stroke"  transform=" translate(-242.5689657025, -370.2809574864)" d="M 339.3 358.186 C 338.458 349.84099999999995 320.267 344.667 293.43100000000004 343.695 C 293.999 345.58799999999997 294.737 347.478 295.331 349.372 C 309.226 351.043 318.776 354.732 319.399 360.90000000000003 C 320.706 373.85900000000004 281.399 385.819 243.747 390.492 C 206.09500000000003 395.165 165.375 393.14000000000004 164.07100000000003 380.18100000000004 C 163.41800000000003 373.701 172.925 367.47100000000006 187.30200000000002 362.27500000000003 C 187.36481093279235 360.4383507955991 187.5317456945088 358.6067425900464 187.80200000000002 356.78900000000004 C 161.758 364.32400000000007 144.99600000000004 373.85 145.83800000000002 382.20900000000006 C 147.16400000000002 395.35300000000007 191.54600000000002 400.63700000000006 244.966 394.00300000000004 C 298.38599999999997 387.369 340.623 371.334 339.3 358.186 Z" stroke-linecap="round" />
</g>
		<g transform="matrix(1 0 0 1 -0.0004623339 3.8623049706)" id="TxC80nGPLJXTxSTi3RZgM"  >
<path style="stroke: none; stroke-width: 1; stroke-dasharray: none; stroke-linecap: butt; stroke-dashoffset: 0; stroke-linejoin: miter; stroke-miterlimit: 4; fill: rgb(255,244,233); fill-rule: nonzero; opacity: 1;" vector-effect="non-scaling-stroke"  transform=" translate(-242.5679918187, -371.0246601318)" d="M 296.082 352.353 C 296.104 352.473 296.137 352.593 296.156 352.712 C 296.55221572376337 354.9899403581038 296.63766108021974 357.3110937421553 296.41 359.61199999999997 C 297.68422132012233 360.4923002278607 298.5337067193797 361.86401619893115 298.754 363.397 C 299.711 372.87399999999997 270.963 381.62 243.431 385.038 C 215.899 388.456 186.11700000000002 386.974 185.16400000000002 377.497 C 184.941 375.281 186.359 373.106 188.99 371.028 C 188.28228977797858 369.2931465677599 187.78280227033937 367.48049029003704 187.502 365.62800000000004 C 177.333 369.96500000000003 171.39600000000002 374.68100000000004 171.829 378.97700000000003 C 172.798 388.59000000000003 205.255 392.45300000000003 244.32 387.60200000000003 C 283.385 382.75100000000003 314.275 371.02400000000006 313.307 361.41 C 312.883 357.214 306.449 354.111 296.082 352.353 Z" stroke-linecap="round" />
</g>
		<g transform="matrix(1 0 0 1 -12.5886341799 -22.9309728239)" id="czmAFIe4okQl6YceZRfb4"  >
<linearGradient id="SVGID_0" gradientUnits="objectBoundingBox" gradientTransform="matrix(1 0 0 1 0 0)"  x1="0.259" y1="0.149" x2="0.741" y2="0.851">
<stop offset="0%" style="stop-color:rgb(255,255,255);stop-opacity: 1"/>
<stop offset="100%" style="stop-color:rgb(255,255,255);stop-opacity: 0"/>
</linearGradient>
<path style="stroke: none; stroke-width: 1; stroke-dasharray: none; stroke-linecap: butt; stroke-dashoffset: 0; stroke-linejoin: miter; stroke-miterlimit: 4; fill: url(#SVGID_0); fill-rule: nonzero; opacity: 0.5;" vector-effect="non-scaling-stroke"  transform=" translate(-229.9798199727, -344.2313823373)" d="M 260.244 326.447 C 267.19300000000004 338.275 259.27900000000005 355.823 242.56000000000003 365.647 C 225.841 375.471 206.66000000000003 373.841 199.71400000000003 362.016 C 192.76800000000003 350.19100000000003 200.68200000000002 332.639 217.39600000000002 322.81600000000003 C 234.11 312.99300000000005 253.293 314.62 260.244 326.447 Z" stroke-linecap="round" />
</g>
		<g transform="matrix(1 0 0 1 -17.3965163608 -30.6640809147)" id="BwOP9EiI6HAuscjSRowwX"  >
<path style="stroke: none; stroke-width: 1; stroke-dasharray: none; stroke-linecap: butt; stroke-dashoffset: 0; stroke-linejoin: miter; stroke-miterlimit: 4; fill: rgb(255,255,255); fill-rule: nonzero; opacity: 0.4;" vector-effect="non-scaling-stroke"  transform=" translate(-225.1719377918, -336.4982742465)" d="M 244.887 324.913 C 249.035 331.978 243.572 342.891 232.687 349.289 C 221.80200000000002 355.68699999999995 209.60700000000003 355.147 205.45800000000003 348.08299999999997 C 201.30900000000003 341.01899999999995 206.76700000000002 330.106 217.65800000000002 323.70799999999997 C 228.549 317.30999999999995 240.735 317.849 244.887 324.913 Z" stroke-linecap="round" />
</g>
</g>
</g>
</svg>